@startuml
'https://plantuml.com/class-diagram

scale 3
abstract class AbstractList
abstract AbstractCollection
interface List
interface Collection

List <|-- AbstractList
Collection <|-- AbstractCollection

Collection <|- List
AbstractCollection <|- AbstractList
AbstractList <|-- ArrayList

class Test {
    haewon
    minji
    soyeon
}

class ArrayList {
Object[] elementData
size()
}

enum TimeUnit {
DAYS
HOURS
MINUTES
}

class Gun {
    String shoot
}

class GunData {
    size
    type
    count
}

class Shooter {
Walk
Run
Shoot
}

@enduml